<?xml version="1.0" encoding="UTF-8" standalone="no"?>
<!DOCTYPE svg PUBLIC "-//W3C//DTD SVG 1.1//EN"
 "http://www.w3.org/Graphics/SVG/1.1/DTD/svg11.dtd">
<!-- Generated by graphviz version 2.43.0 (0)
 -->
<!-- Title: block_diagram Pages: 1 -->
<svg width="677pt" height="210pt"
 viewBox="0.00 0.00 677.00 210.00" xmlns="http://www.w3.org/2000/svg" xmlns:xlink="http://www.w3.org/1999/xlink">
<g id="graph0" class="graph" transform="scale(1 1) rotate(0) translate(4 206)">
<title>block_diagram</title>
<polygon fill="white" stroke="transparent" points="-4,4 -4,-206 673,-206 673,4 -4,4"/>
<g id="clust1" class="cluster">
<title>cluster_not_visible</title>
<polygon fill="none" stroke="#888888" stroke-dasharray="5,2" points="8,-88 8,-194 284,-194 284,-88 8,-88"/>
<text text-anchor="middle" x="146" y="-182" font-family="sans-serif" font-size="10.00" fill="#888888">Credential not visible</text>
</g>
<g id="clust2" class="cluster">
<title>cluster_visible</title>
<polygon fill="none" stroke="#cc4444" stroke-dasharray="5,2" points="368,-8 368,-159 661,-159 661,-8 368,-8"/>
<text text-anchor="middle" x="514.5" y="-147" font-family="sans-serif" font-size="10.00" fill="#cc4444">Credential visible</text>
</g>
<!-- A -->
<g id="node1" class="node">
<title>A</title>
<polygon fill="#e8f4fd" stroke="black" points="90,-132 16,-132 16,-96 90,-96 90,-132"/>
<text text-anchor="middle" x="53" y="-111.2" font-family="sans-serif" font-size="11.00">LLM agent</text>
</g>
<!-- B -->
<g id="node2" class="node">
<title>B</title>
<polygon fill="#e8f4fd" stroke="black" points="276,-132 190,-132 190,-96 276,-96 276,-132"/>
<text text-anchor="middle" x="233" y="-117.2" font-family="sans-serif" font-size="11.00">key&#45;rest</text>
<text text-anchor="middle" x="233" y="-105.2" font-family="sans-serif" font-size="11.00">client library</text>
</g>
<!-- A&#45;&gt;B -->
<g id="edge2" class="edge">
<title>A&#45;&gt;B</title>
<path fill="none" stroke="black" d="M90.02,-114C115.72,-114 150.67,-114 179.47,-114"/>
<polygon fill="black" stroke="black" points="179.77,-117.5 189.77,-114 179.77,-110.5 179.77,-117.5"/>
<text text-anchor="middle" x="140" y="-126.8" font-family="sans-serif" font-size="9.00">request with</text>
<text text-anchor="middle" x="140" y="-116.8" font-family="sans-serif" font-size="9.00">key&#45;rest:// URI</text>
</g>
<!-- B&#45;&gt;A -->
<g id="edge5" class="edge">
<title>B&#45;&gt;A</title>
<path fill="none" stroke="black" stroke-dasharray="5,2" d="M189.86,-130.73C183.94,-132.49 177.88,-134 172,-135 143.96,-139.77 135.96,-140.24 108,-135 105.31,-134.5 102.59,-133.86 99.86,-133.13"/>
<polygon fill="black" stroke="black" points="100.65,-129.71 90.06,-130.12 98.59,-136.4 100.65,-129.71"/>
<text text-anchor="middle" x="140" y="-140.8" font-family="sans-serif" font-size="9.00">response</text>
</g>
<!-- D -->
<g id="node3" class="node">
<title>D</title>
<polygon fill="#fce4ec" stroke="black" points="485,-132 376,-132 376,-96 485,-96 485,-132"/>
<text text-anchor="middle" x="430.5" y="-111.2" font-family="sans-serif" font-size="11.00">key&#45;rest&#45;daemon</text>
</g>
<!-- B&#45;&gt;D -->
<g id="edge3" class="edge">
<title>B&#45;&gt;D</title>
<path fill="none" stroke="black" d="M276.42,-114C302.54,-114 336.52,-114 365.82,-114"/>
<polygon fill="black" stroke="black" points="365.97,-117.5 375.97,-114 365.97,-110.5 365.97,-117.5"/>
<text text-anchor="middle" x="326" y="-126.8" font-family="sans-serif" font-size="9.00">request with</text>
<text text-anchor="middle" x="326" y="-116.8" font-family="sans-serif" font-size="9.00">key&#45;rest:// URI</text>
</g>
<!-- D&#45;&gt;B -->
<g id="edge6" class="edge">
<title>D&#45;&gt;B</title>
<path fill="none" stroke="black" stroke-dasharray="5,2" d="M375.79,-102.33C369.81,-101.37 363.79,-100.56 358,-100 329.69,-97.25 322.26,-96.75 294,-100 291.35,-100.3 288.65,-100.68 285.93,-101.12"/>
<polygon fill="black" stroke="black" points="285.29,-97.68 276.07,-102.91 286.54,-104.56 285.29,-97.68"/>
<text text-anchor="middle" x="326" y="-102.8" font-family="sans-serif" font-size="9.00">response</text>
</g>
<!-- S -->
<g id="node4" class="node">
<title>S</title>
<polygon fill="#fce4ec" stroke="black" points="653,-97 591,-97 591,-61 653,-61 653,-97"/>
<text text-anchor="middle" x="622" y="-76.2" font-family="sans-serif" font-size="11.00">services</text>
</g>
<!-- D&#45;&gt;S -->
<g id="edge4" class="edge">
<title>D&#45;&gt;S</title>
<path fill="none" stroke="black" d="M462.1,-95.85C474.38,-89.54 488.94,-83.24 503,-80 528.28,-74.18 557.41,-73.88 580.41,-75.05"/>
<polygon fill="black" stroke="black" points="580.31,-78.55 590.51,-75.68 580.75,-71.56 580.31,-78.55"/>
<text text-anchor="middle" x="538" y="-92.8" font-family="sans-serif" font-size="9.00">request with</text>
<text text-anchor="middle" x="538" y="-82.8" font-family="sans-serif" font-size="9.00">real credentials</text>
</g>
<!-- S&#45;&gt;D -->
<g id="edge7" class="edge">
<title>S&#45;&gt;D</title>
<path fill="none" stroke="black" stroke-dasharray="5,2" d="M590.78,-93.92C584.99,-96.29 578.9,-98.46 573,-100 548.13,-106.5 520.08,-110.02 495.56,-111.92"/>
<polygon fill="black" stroke="black" points="495.01,-108.45 485.28,-112.64 495.5,-115.44 495.01,-108.45"/>
<text text-anchor="middle" x="538" y="-113.8" font-family="sans-serif" font-size="9.00">response</text>
</g>
<!-- K -->
<g id="node5" class="node">
<title>K</title>
<path fill="#fff3e0" stroke="black" d="M466.5,-56C466.5,-58.21 450.36,-60 430.5,-60 410.64,-60 394.5,-58.21 394.5,-56 394.5,-56 394.5,-20 394.5,-20 394.5,-17.79 410.64,-16 430.5,-16 450.36,-16 466.5,-17.79 466.5,-20 466.5,-20 466.5,-56 466.5,-56"/>
<path fill="none" stroke="black" d="M466.5,-56C466.5,-53.79 450.36,-52 430.5,-52 410.64,-52 394.5,-53.79 394.5,-56"/>
<text text-anchor="middle" x="430.5" y="-41.2" font-family="sans-serif" font-size="11.00">APP KEY</text>
<text text-anchor="middle" x="430.5" y="-29.2" font-family="sans-serif" font-size="11.00">encrypted</text>
</g>
<!-- K&#45;&gt;D -->
<g id="edge1" class="edge">
<title>K&#45;&gt;D</title>
<path fill="none" stroke="black" stroke-dasharray="1,5" d="M430.5,-60.39C430.5,-68.27 430.5,-77.24 430.5,-85.55"/>
<polygon fill="black" stroke="black" points="427,-85.6 430.5,-95.6 434,-85.6 427,-85.6"/>
<text text-anchor="middle" x="422.5" y="-75.8" font-family="sans-serif" font-size="9.00">decrypt</text>
</g>
</g>
</svg>
